<svg width="24" height="24" viewBox="0 0 24 24" fill="none" xmlns="http://www.w3.org/2000/svg">
<g clip-path="url(#clip0_1212_47)">
<path d="M4.105 4.105C4.105 4.105 9.158 1.58 11.684 0.316001C12.1438 0.0893626 12.6528 -0.0189112 13.165 0.00100069C13.931 0.0480007 14.842 0.789001 14.842 0.789001L24 9.948V19.737H19.737V24H9.789L0.789 15C0.303 14.5 0 13.795 0 13.105C0 12.786 0.18 12.287 0.316 12L4.105 4.105ZM4.784 4.784V16.571C4.786 17.114 4.805 17.595 5.282 18.079L10.204 23H18.737V18.737L4.784 4.784ZM16.839 4.106C15.94 3.21 15.03 2.326 14.099 1.463C13.797 1.196 13.532 0.995001 13.029 1.001C12.659 1.015 12.159 1.196 12.159 1.196L6.341 4.105L16.839 4.106Z" fill="#ffffff"/>
</g>
<defs>
<clipPath id="clip0_1212_47">
<rect width="24" height="24" fill="white"/>
</clipPath>
</defs>
</svg>
