<svg width="24" height="24" viewBox="0 0 24 24" fill="none" xmlns="http://www.w3.org/2000/svg">
<path fill-rule="evenodd" clip-rule="evenodd" d="M21.623 11.11L12.89 2.376C12.6485 2.13461 12.321 1.99901 11.9795 1.99901C11.638 1.99901 11.3105 2.13461 11.069 2.376L9.256 4.191L11.556 6.491C11.8272 6.39903 12.1188 6.38502 12.3975 6.45055C12.6763 6.51609 12.931 6.65854 13.1329 6.8617C13.3347 7.06487 13.4754 7.32059 13.5391 7.59978C13.6027 7.87897 13.5868 8.17043 13.493 8.441L15.71 10.658C16.0413 10.5441 16.4016 10.5472 16.7309 10.6668C17.0602 10.7864 17.3385 11.0152 17.5196 11.3151C17.7006 11.615 17.7734 11.9679 17.7258 12.315C17.6782 12.662 17.5131 12.9823 17.258 13.2224C17.0029 13.4625 16.6732 13.6079 16.3239 13.6344C15.9746 13.6609 15.6267 13.5669 15.3383 13.368C15.0499 13.1692 14.8384 12.8775 14.739 12.5415C14.6396 12.2056 14.6583 11.8458 14.792 11.522L12.724 9.454V14.895C13.0382 15.0505 13.2896 15.309 13.4364 15.6273C13.5831 15.9457 13.6163 16.3048 13.5304 16.6447C13.4445 16.9846 13.2446 17.2847 12.9642 17.4952C12.6838 17.7056 12.3398 17.8135 11.9894 17.801C11.6391 17.7885 11.3036 17.6563 11.0389 17.4264C10.7742 17.1965 10.5963 16.8829 10.5349 16.5377C10.4734 16.1926 10.5321 15.8368 10.7012 15.5297C10.8703 15.2226 11.1395 14.9827 11.464 14.85V9.36C11.2769 9.28333 11.1068 9.17036 10.9635 9.02761C10.8202 8.88487 10.7067 8.71517 10.6293 8.52831C10.552 8.34145 10.5124 8.14112 10.5128 7.93889C10.5133 7.73665 10.5538 7.53651 10.632 7.35L8.365 5.081L2.377 11.068C2.13555 11.3097 1.99992 11.6374 1.99992 11.979C1.99992 12.3206 2.13555 12.6483 2.377 12.89L11.11 21.622C11.3515 21.8634 11.679 21.999 12.0205 21.999C12.362 21.999 12.6895 21.8634 12.931 21.622L21.623 12.93C21.7427 12.8104 21.8376 12.6684 21.9024 12.5121C21.9672 12.3557 22.0005 12.1882 22.0005 12.019C22.0005 11.8498 21.9672 11.6823 21.9024 11.5259C21.8376 11.3696 21.7427 11.2276 21.623 11.108" fill="#ffffff"/>
</svg>
