<svg width="24" height="24" viewBox="0 0 24 24" fill="none" xmlns="http://www.w3.org/2000/svg">
<path d="M21.7 6.53C21.71 6.55 21.71 6.58 21.71 6.61V10.9C21.71 11 21.65 11.12 21.56 11.17L17.95 13.25V17.36C17.95 17.47 17.9 17.57 17.8 17.63L10.28 21.96C10.26 21.97 10.24 22 10.22 22H10C10 22 10 21.97 9.96001 21.96L2.44001 17.63C2.39393 17.6017 2.35592 17.5619 2.32965 17.5146C2.30338 17.4674 2.28973 17.4141 2.29001 17.36V4.5C2.29001 4.45 2.29001 4.42 2.30001 4.4C2.30001 4.39 2.31001 4.38 2.31001 4.37C2.31001 4.35 2.32001 4.34 2.33001 4.32C2.33001 4.31 2.34001 4.3 2.35001 4.29L2.38001 4.26L2.41001 4.23C2.42001 4.22 2.43001 4.21 2.44001 4.21L6.20001 2.04C6.30001 2 6.42001 2 6.50001 2.04L10.28 4.21C10.29 4.22 10.3 4.22 10.31 4.23L10.34 4.26L10.37 4.29C10.38 4.3 10.39 4.31 10.39 4.32C10.4 4.34 10.41 4.35 10.41 4.37C10.41 4.38 10.42 4.39 10.42 4.4C10.43 4.43 10.43 4.45 10.43 4.5V12.5L13.57 10.72V6.61C13.57 6.58 13.57 6.55 13.58 6.53L13.59 6.5C13.59 6.5 13.6 6.47 13.61 6.45C13.61 6.44 13.62 6.43 13.63 6.42L13.66 6.39L13.69 6.36C13.7 6.35 13.71 6.34 13.72 6.34L17.5 4.17C17.58 4.11 17.7 4.11 17.8 4.17L21.56 6.34C21.57 6.34 21.58 6.35 21.59 6.36L21.62 6.39L21.65 6.42C21.66 6.43 21.66 6.44 21.67 6.45C21.68 6.47 21.68 6.5 21.69 6.5C21.7 6.5 21.7 6.5 21.7 6.53ZM21.09 10.72V7.15L17.95 8.95V12.5L21.09 10.72ZM17.33 17.18V13.6L10.43 17.54V21.15L17.33 17.18ZM2.91001 5V17.18L9.81001 21.15V17.54L6.21001 15.5H6.20001C6.19001 15.5 6.18001 15.5 6.17001 15.47C6.16001 15.47 6.15001 15.46 6.14001 15.45L6.11001 15.42C6.10001 15.41 6.10001 15.4 6.09001 15.39C6.08001 15.37 6.08001 15.36 6.07001 15.35C6.07001 15.33 6.06001 15.32 6.06001 15.31C6.05001 15.3 6.05001 15.28 6.05001 15.27V6.82L2.91001 5ZM6.36001 2.68L3.23001 4.5L6.36001 6.28L9.50001 4.5L6.36001 2.68ZM9.81001 12.88V5L6.67001 6.82V14.69L9.81001 12.88ZM17.64 4.8L14.5 6.61L17.64 8.41L20.77 6.61L17.64 4.8ZM17.33 8.95L14.19 7.15V10.72L17.33 12.5V8.95ZM10.12 17L17 13.06L13.88 11.26L7.00001 15.23L10.12 17Z" fill="#ffffff"/>
</svg>
